<mxfile host="app.diagrams.net" modified="2021-05-10T15:05:31.927Z" agent="5.0 (Windows NT 10.0; Win64; x64) AppleWebKit/537.36 (KHTML, like Gecko) Chrome/90.0.4430.93 Safari/537.36" etag="0rmXlEkGZfex-23YL3IQ" version="14.6.10" type="github">
  <diagram id="TGOQkfP93n5O_sGpPJ7P" name="Page-1">
    <mxGraphModel dx="4430" dy="2943" grid="0" gridSize="10" guides="1" tooltips="1" connect="1" arrows="1" fold="1" page="0" pageScale="1" pageWidth="827" pageHeight="1169" math="0" shadow="0">
      <root>
        <mxCell id="0" />
        <mxCell id="1" parent="0" />
        <mxCell id="0OuhRyCwz-x_EXl9Tuvm-1" value="" style="ellipse;whiteSpace=wrap;html=1;aspect=fixed;" vertex="1" parent="1">
          <mxGeometry x="400" y="590" width="80" height="80" as="geometry" />
        </mxCell>
        <mxCell id="0OuhRyCwz-x_EXl9Tuvm-2" value="" style="ellipse;whiteSpace=wrap;html=1;aspect=fixed;" vertex="1" parent="1">
          <mxGeometry x="270" y="750" width="80" height="80" as="geometry" />
        </mxCell>
        <mxCell id="0OuhRyCwz-x_EXl9Tuvm-3" value="" style="ellipse;whiteSpace=wrap;html=1;aspect=fixed;" vertex="1" parent="1">
          <mxGeometry x="600" y="730" width="80" height="80" as="geometry" />
        </mxCell>
        <mxCell id="0OuhRyCwz-x_EXl9Tuvm-4" value="" style="ellipse;whiteSpace=wrap;html=1;aspect=fixed;" vertex="1" parent="1">
          <mxGeometry x="600" y="490" width="80" height="80" as="geometry" />
        </mxCell>
        <mxCell id="0OuhRyCwz-x_EXl9Tuvm-5" value="" style="ellipse;whiteSpace=wrap;html=1;aspect=fixed;" vertex="1" parent="1">
          <mxGeometry x="200" y="430" width="80" height="80" as="geometry" />
        </mxCell>
        <mxCell id="0OuhRyCwz-x_EXl9Tuvm-6" value="" style="ellipse;whiteSpace=wrap;html=1;aspect=fixed;" vertex="1" parent="1">
          <mxGeometry x="380" y="340" width="80" height="80" as="geometry" />
        </mxCell>
        <mxCell id="0OuhRyCwz-x_EXl9Tuvm-8" value="" style="ellipse;whiteSpace=wrap;html=1;aspect=fixed;" vertex="1" parent="1">
          <mxGeometry x="767" y="340" width="80" height="80" as="geometry" />
        </mxCell>
        <mxCell id="0OuhRyCwz-x_EXl9Tuvm-9" value="" style="ellipse;whiteSpace=wrap;html=1;aspect=fixed;" vertex="1" parent="1">
          <mxGeometry x="810" y="670" width="80" height="80" as="geometry" />
        </mxCell>
        <mxCell id="0OuhRyCwz-x_EXl9Tuvm-10" value="" style="ellipse;whiteSpace=wrap;html=1;aspect=fixed;" vertex="1" parent="1">
          <mxGeometry x="760" y="893" width="80" height="80" as="geometry" />
        </mxCell>
        <mxCell id="0OuhRyCwz-x_EXl9Tuvm-11" value="" style="ellipse;whiteSpace=wrap;html=1;aspect=fixed;" vertex="1" parent="1">
          <mxGeometry x="987" y="767" width="80" height="80" as="geometry" />
        </mxCell>
        <mxCell id="0OuhRyCwz-x_EXl9Tuvm-12" value="" style="ellipse;whiteSpace=wrap;html=1;aspect=fixed;" vertex="1" parent="1">
          <mxGeometry x="987" y="399" width="80" height="80" as="geometry" />
        </mxCell>
        <mxCell id="0OuhRyCwz-x_EXl9Tuvm-13" value="" style="ellipse;whiteSpace=wrap;html=1;aspect=fixed;" vertex="1" parent="1">
          <mxGeometry x="903" y="555" width="80" height="80" as="geometry" />
        </mxCell>
        <mxCell id="0OuhRyCwz-x_EXl9Tuvm-14" value="" style="ellipse;whiteSpace=wrap;html=1;aspect=fixed;" vertex="1" parent="1">
          <mxGeometry x="500" y="960" width="80" height="80" as="geometry" />
        </mxCell>
        <mxCell id="0OuhRyCwz-x_EXl9Tuvm-15" value="" style="ellipse;whiteSpace=wrap;html=1;aspect=fixed;" vertex="1" parent="1">
          <mxGeometry x="1303" y="376" width="80" height="80" as="geometry" />
        </mxCell>
        <mxCell id="0OuhRyCwz-x_EXl9Tuvm-16" value="" style="ellipse;whiteSpace=wrap;html=1;aspect=fixed;" vertex="1" parent="1">
          <mxGeometry x="1357" y="547" width="80" height="80" as="geometry" />
        </mxCell>
        <mxCell id="0OuhRyCwz-x_EXl9Tuvm-17" value="" style="ellipse;whiteSpace=wrap;html=1;aspect=fixed;" vertex="1" parent="1">
          <mxGeometry x="1839" y="301" width="80" height="80" as="geometry" />
        </mxCell>
        <mxCell id="0OuhRyCwz-x_EXl9Tuvm-18" value="" style="ellipse;whiteSpace=wrap;html=1;aspect=fixed;" vertex="1" parent="1">
          <mxGeometry x="1501" y="44" width="80" height="80" as="geometry" />
        </mxCell>
        <mxCell id="0OuhRyCwz-x_EXl9Tuvm-20" value="" style="ellipse;whiteSpace=wrap;html=1;aspect=fixed;" vertex="1" parent="1">
          <mxGeometry x="1318" y="9" width="80" height="80" as="geometry" />
        </mxCell>
        <mxCell id="0OuhRyCwz-x_EXl9Tuvm-21" value="" style="ellipse;whiteSpace=wrap;html=1;aspect=fixed;" vertex="1" parent="1">
          <mxGeometry x="1357" y="-188" width="80" height="80" as="geometry" />
        </mxCell>
        <mxCell id="0OuhRyCwz-x_EXl9Tuvm-22" value="" style="ellipse;whiteSpace=wrap;html=1;aspect=fixed;" vertex="1" parent="1">
          <mxGeometry x="1091" y="-108" width="80" height="80" as="geometry" />
        </mxCell>
        <mxCell id="0OuhRyCwz-x_EXl9Tuvm-23" value="" style="ellipse;whiteSpace=wrap;html=1;aspect=fixed;" vertex="1" parent="1">
          <mxGeometry x="1161" y="131" width="80" height="80" as="geometry" />
        </mxCell>
        <mxCell id="0OuhRyCwz-x_EXl9Tuvm-24" value="" style="ellipse;whiteSpace=wrap;html=1;aspect=fixed;" vertex="1" parent="1">
          <mxGeometry x="1707" y="-198" width="80" height="80" as="geometry" />
        </mxCell>
        <mxCell id="0OuhRyCwz-x_EXl9Tuvm-25" value="" style="ellipse;whiteSpace=wrap;html=1;aspect=fixed;" vertex="1" parent="1">
          <mxGeometry x="1537" y="255" width="80" height="80" as="geometry" />
        </mxCell>
        <mxCell id="0OuhRyCwz-x_EXl9Tuvm-26" value="" style="ellipse;whiteSpace=wrap;html=1;aspect=fixed;" vertex="1" parent="1">
          <mxGeometry x="1783" y="58" width="80" height="80" as="geometry" />
        </mxCell>
        <mxCell id="0OuhRyCwz-x_EXl9Tuvm-28" value="" style="ellipse;whiteSpace=wrap;html=1;aspect=fixed;" vertex="1" parent="1">
          <mxGeometry x="890" y="-385" width="80" height="80" as="geometry" />
        </mxCell>
        <mxCell id="0OuhRyCwz-x_EXl9Tuvm-29" value="" style="ellipse;whiteSpace=wrap;html=1;aspect=fixed;" vertex="1" parent="1">
          <mxGeometry x="1293" y="-404" width="80" height="80" as="geometry" />
        </mxCell>
        <mxCell id="0OuhRyCwz-x_EXl9Tuvm-30" value="" style="ellipse;whiteSpace=wrap;html=1;aspect=fixed;" vertex="1" parent="1">
          <mxGeometry x="797" y="78" width="80" height="80" as="geometry" />
        </mxCell>
        <mxCell id="0OuhRyCwz-x_EXl9Tuvm-31" value="" style="ellipse;whiteSpace=wrap;html=1;aspect=fixed;" vertex="1" parent="1">
          <mxGeometry x="962" y="1040" width="80" height="80" as="geometry" />
        </mxCell>
        <mxCell id="0OuhRyCwz-x_EXl9Tuvm-32" value="" style="ellipse;whiteSpace=wrap;html=1;aspect=fixed;" vertex="1" parent="1">
          <mxGeometry x="99" y="258" width="80" height="80" as="geometry" />
        </mxCell>
        <mxCell id="0OuhRyCwz-x_EXl9Tuvm-33" value="" style="ellipse;whiteSpace=wrap;html=1;aspect=fixed;" vertex="1" parent="1">
          <mxGeometry x="262" y="945" width="80" height="80" as="geometry" />
        </mxCell>
        <mxCell id="0OuhRyCwz-x_EXl9Tuvm-34" value="" style="ellipse;whiteSpace=wrap;html=1;aspect=fixed;" vertex="1" parent="1">
          <mxGeometry x="-3" y="822" width="80" height="80" as="geometry" />
        </mxCell>
      </root>
    </mxGraphModel>
  </diagram>
</mxfile>
